<svg width="44" height="44" viewBox="0 0 44 44" fill="none" xmlns="http://www.w3.org/2000/svg">
<path fill-rule="evenodd" clip-rule="evenodd" d="M14.0709 27.3149L4.20752 37.1783C3.86084 37.5252 3.66618 37.9956 3.66635 38.4861C3.66652 38.9765 3.86152 39.4468 4.20844 39.7935C4.55537 40.1402 5.0258 40.3349 5.51625 40.3347C6.00671 40.3345 6.47701 40.1395 6.82369 39.7926L16.687 29.9293C19.6356 32.213 23.3433 33.2877 27.0561 32.9347C30.7689 32.5818 34.2078 30.8277 36.6731 28.0292C39.1385 25.2308 40.4452 21.5983 40.3274 17.8706C40.2096 14.1429 38.6761 10.6002 36.0389 7.96301C33.4018 5.32584 29.859 3.79238 26.1314 3.67456C22.4037 3.55675 18.7712 4.86344 15.9727 7.32882C13.1743 9.79419 11.4202 13.2331 11.0672 16.9458C10.7142 20.6586 11.7889 24.3664 14.0727 27.3149H14.0709ZM25.6667 29.3334C22.7493 29.3334 19.9514 28.1745 17.8885 26.1116C15.8256 24.0487 14.6667 21.2508 14.6667 18.3334C14.6667 15.4161 15.8256 12.6182 17.8885 10.5553C19.9514 8.49236 22.7493 7.33343 25.6667 7.33343C28.5841 7.33343 31.382 8.49236 33.4449 10.5553C35.5078 12.6182 36.6667 15.4161 36.6667 18.3334C36.6667 21.2508 35.5078 24.0487 33.4449 26.1116C31.382 28.1745 28.5841 29.3334 25.6667 29.3334Z" fill="#18335E"/>
</svg>
